<svg xmlns="http://www.w3.org/2000/svg" viewBox="0 0 240 160" role="img" aria-label="Dolphin illustration">
  <path d="M30 118 C40 92 70 78 104 76 C112 60 116 44 112 30 C126 40 132 58 130 74 C160 78 188 74 214 58 C204 84 184 100 156 106 C168 116 182 120 196 120 C176 132 150 132 130 122 C104 132 62 134 30 118 Z" fill="#5b7d92"/>
  <path d="M30 118 C60 108 100 108 130 116 C110 122 70 122 40 120 Z" fill="#cfe0e8"/>
  <path d="M214 58 C210 66 204 72 196 76 C204 70 210 62 214 58 Z" fill="#40606f"/>
  <circle cx="120" cy="66" r="5" fill="#1c2830"/>
  <path d="M108 82 C118 84 126 84 132 82" stroke="#1c2830" stroke-width="3" fill="none" stroke-linecap="round"/>
</svg>
