<svg xmlns="http://www.w3.org/2000/svg" viewBox="0 0 240 160" role="img" aria-label="Shark illustration">
  <g fill="#8a9aa5">
    <path d="M20 95 C60 70 120 62 175 78 C200 84 214 92 224 98 C210 102 196 104 182 104 C205 118 214 132 216 146 C196 138 176 128 162 116 C120 128 70 124 34 108 C20 102 14 100 20 95 Z"/>
    <path d="M96 66 C104 40 120 30 130 26 C130 46 126 62 118 74 Z"/>
    <path d="M60 108 C56 124 60 138 70 148 C78 136 80 122 78 110 Z"/>
  </g>
  <path d="M20 95 C60 82 120 80 182 90 C205 94 214 96 224 98 C210 102 196 104 182 104 C120 116 62 112 34 108 C20 104 14 100 20 95 Z" fill="#f2f4f5"/>
  <circle cx="58" cy="94" r="5" fill="#1c2830"/>
  <path d="M40 104 C60 108 80 108 96 106 C86 112 60 112 44 108 Z" fill="#e2686a"/>
  <g stroke="#6c7c88" stroke-width="3" fill="none" stroke-linecap="round">
    <path d="M92 84 l-6 14"/><path d="M100 84 l-6 14"/><path d="M108 85 l-6 14"/>
  </g>
</svg>
