<svg xmlns="http://www.w3.org/2000/svg" viewBox="0 0 240 160" role="img" aria-label="Leafy seadragon illustration">
  <g fill="#7fae5a">
    <path d="M96 30 C86 20 72 20 64 28 C76 32 86 34 94 40 Z"/>
    <path d="M140 40 C152 30 166 32 172 42 C160 42 150 46 142 52 Z"/>
    <path d="M150 78 C166 74 178 80 182 92 C168 90 156 90 148 94 Z"/>
    <path d="M60 70 C46 68 36 76 34 88 C48 84 58 84 66 86 Z"/>
    <path d="M70 118 C60 130 62 144 72 152 C78 140 78 128 76 118 Z"/>
    <path d="M112 120 C120 134 134 140 146 138 C138 126 126 120 116 118 Z"/>
  </g>
  <path d="M108 28 C128 28 140 44 140 60 C140 74 130 82 122 90 C114 96 110 106 112 116 C114 128 122 136 134 138 C122 146 108 144 100 134 C94 126 94 114 98 104 C90 108 82 106 78 98 C90 96 96 90 98 82 C90 80 84 72 86 62 C92 68 100 68 104 64 C96 56 94 44 100 34 C102 42 106 46 112 46 C110 40 108 34 108 28 Z" fill="#d8a24a"/>
  <path d="M108 28 C114 22 124 20 132 24 C126 26 120 30 116 36 C112 32 110 30 108 28 Z" fill="#c08a34"/>
  <circle cx="124" cy="48" r="3.5" fill="#1c2830"/>
</svg>
