<svg xmlns="http://www.w3.org/2000/svg" viewBox="0 0 240 160" role="img" aria-label="Manta ray illustration">
  <path d="M120 40 C132 44 140 56 142 70 C170 54 206 52 228 66 C204 74 182 86 158 92 C168 104 170 118 162 130 C150 122 140 110 134 98 C129 100 123 100 118 98 C112 110 102 122 90 130 C82 118 84 104 94 92 C70 86 48 74 24 66 C46 52 82 54 110 70 C112 56 108 44 120 40 Z" fill="#3a4a57"/>
  <path d="M112 52 C110 46 108 42 106 38 C112 40 116 44 118 50 Z" fill="#2a3742"/>
  <path d="M128 52 C130 46 132 42 134 38 C128 40 124 44 122 50 Z" fill="#2a3742"/>
  <circle cx="106" cy="66" r="3.5" fill="#cfe0e8"/>
  <circle cx="134" cy="66" r="3.5" fill="#cfe0e8"/>
  <path d="M162 130 C168 140 168 150 164 158 C158 150 158 140 160 132 Z" fill="#3a4a57"/>
</svg>
