<svg xmlns="http://www.w3.org/2000/svg" viewBox="0 0 240 160" role="img" aria-label="Moray eel illustration">
  <path d="M20 140 C40 120 40 96 60 84 C78 74 96 82 104 68 C110 56 106 42 116 34 C128 24 146 28 154 40 C160 50 158 62 150 70 C160 66 172 70 176 80 C166 82 158 88 156 98 C154 108 160 116 156 126 C150 138 134 142 122 136 C112 130 110 118 114 108 C104 116 90 116 82 108 C74 118 76 132 66 142 Z" fill="#5f7042"/>
  <path d="M116 34 C128 24 146 28 154 40 C144 40 132 44 124 52 C120 46 118 40 116 34 Z" fill="#4c5a34"/>
  <path d="M118 52 C132 48 146 52 152 62 C140 60 128 62 122 68 C118 62 118 56 118 52 Z" fill="#e9e2c2"/>
  <circle cx="134" cy="42" r="4" fill="#1c2830"/>
  <g fill="#e9e2c2"><path d="M124 56 l3 6 3 -6z"/><path d="M134 56 l3 6 3 -6z"/><path d="M144 58 l3 6 3 -6z"/></g>
</svg>
