<svg xmlns="http://www.w3.org/2000/svg" viewBox="0 0 240 160" role="img" aria-label="Seahorse illustration">
  <path d="M104 24 C126 24 140 40 140 58 C140 72 132 82 122 90 C114 96 110 104 110 114 C110 128 118 138 132 140 C120 148 104 146 96 136 C90 128 90 116 94 106 C86 110 78 108 74 100 C86 98 92 92 94 84 C86 82 80 74 82 64 C88 70 96 70 100 66 C92 58 90 46 96 36 C98 44 104 48 110 48 C108 40 104 32 104 24 Z" fill="#e0a23c"/>
  <path d="M104 24 C110 18 120 16 128 20 C122 22 116 26 112 32 C110 28 106 26 104 24 Z" fill="#c8862a"/>
  <path d="M128 40 C136 36 144 38 148 46 C140 46 132 48 128 52 Z" fill="#c8862a"/>
  <circle cx="120" cy="46" r="4" fill="#1c2830"/>
  <g fill="#c8862a"><circle cx="112" cy="70" r="2.5"/><circle cx="110" cy="86" r="2.5"/><circle cx="106" cy="102" r="2.5"/></g>
</svg>
